<mxfile host="Electron" agent="Mozilla/5.0 (Macintosh; Intel Mac OS X 10_15_7) AppleWebKit/537.36 (KHTML, like Gecko) draw.io/28.1.2 Chrome/138.0.7204.243 Electron/37.4.0 Safari/537.36" version="28.1.2" pages="3">
  <diagram id="C5RBs43oDa-KdzZeNtuy" name="Page-1">
    <mxGraphModel dx="1186" dy="882" grid="1" gridSize="10" guides="1" tooltips="1" connect="1" arrows="1" fold="1" page="1" pageScale="1" pageWidth="550" pageHeight="300" math="0" shadow="0">
      <root>
        <mxCell id="WIyWlLk6GJQsqaUBKTNV-0" />
        <mxCell id="WIyWlLk6GJQsqaUBKTNV-1" parent="WIyWlLk6GJQsqaUBKTNV-0" />
        <mxCell id="wlakqMtp103lP84yzMkq-0" value="" style="shape=mxgraph.signs.transportation.car_4;html=1;pointerEvents=1;fillColor=#000000;strokeColor=none;verticalLabelPosition=bottom;verticalAlign=top;align=center;" vertex="1" parent="WIyWlLk6GJQsqaUBKTNV-1">
          <mxGeometry x="60" y="30" width="98" height="86" as="geometry" />
        </mxCell>
        <mxCell id="wlakqMtp103lP84yzMkq-1" value="a new car" style="shape=mxgraph.signs.transportation.car_4;html=1;pointerEvents=1;fillColor=#dae8fc;strokeColor=#6c8ebf;verticalLabelPosition=bottom;verticalAlign=top;align=center;" vertex="1" parent="WIyWlLk6GJQsqaUBKTNV-1">
          <mxGeometry x="360" y="30" width="98" height="86" as="geometry" />
        </mxCell>
        <mxCell id="wlakqMtp103lP84yzMkq-2" value="" style="endArrow=classic;html=1;rounded=0;strokeWidth=4;" edge="1" parent="WIyWlLk6GJQsqaUBKTNV-1">
          <mxGeometry width="50" height="50" relative="1" as="geometry">
            <mxPoint x="190" y="70" as="sourcePoint" />
            <mxPoint x="350" y="70" as="targetPoint" />
          </mxGeometry>
        </mxCell>
        <mxCell id="wlakqMtp103lP84yzMkq-3" value="Created Instance" style="edgeLabel;html=1;align=center;verticalAlign=middle;resizable=0;points=[];fontSize=12;" vertex="1" connectable="0" parent="wlakqMtp103lP84yzMkq-2">
          <mxGeometry x="-0.1167" y="1" relative="1" as="geometry">
            <mxPoint as="offset" />
          </mxGeometry>
        </mxCell>
        <mxCell id="wlakqMtp103lP84yzMkq-5" value="&lt;h1 style=&quot;margin-top: 0px;&quot;&gt;&lt;font style=&quot;font-size: 15px;&quot;&gt;Properties&lt;/font&gt;&lt;/h1&gt;&lt;div&gt;Size&lt;/div&gt;&lt;div&gt;&lt;br&gt;&lt;/div&gt;&lt;div&gt;Color&lt;/div&gt;&lt;div&gt;&lt;br&gt;&lt;/div&gt;&lt;div&gt;Engine Type&lt;/div&gt;&lt;div&gt;&lt;br&gt;&lt;/div&gt;&lt;div&gt;Power&lt;/div&gt;" style="text;html=1;whiteSpace=wrap;overflow=hidden;rounded=0;" vertex="1" parent="WIyWlLk6GJQsqaUBKTNV-1">
          <mxGeometry x="10" y="130" width="120" height="159" as="geometry" />
        </mxCell>
        <mxCell id="wlakqMtp103lP84yzMkq-6" value="&lt;h1 style=&quot;margin-top: 0px;&quot;&gt;&lt;font style=&quot;font-size: 15px;&quot;&gt;Methods&lt;/font&gt;&lt;/h1&gt;&lt;div&gt;TurnOn&lt;/div&gt;&lt;div&gt;&lt;br&gt;&lt;/div&gt;&lt;div&gt;AddEnergy&lt;/div&gt;&lt;div&gt;&lt;br&gt;&lt;/div&gt;&lt;div&gt;Status&lt;/div&gt;" style="text;html=1;whiteSpace=wrap;overflow=hidden;rounded=0;" vertex="1" parent="WIyWlLk6GJQsqaUBKTNV-1">
          <mxGeometry x="130" y="130" width="120" height="159" as="geometry" />
        </mxCell>
        <mxCell id="wlakqMtp103lP84yzMkq-7" value="&lt;h1 style=&quot;margin-top: 0px;&quot;&gt;&lt;font style=&quot;font-size: 15px;&quot;&gt;Properties&lt;/font&gt;&lt;/h1&gt;&lt;div&gt;Size :&amp;nbsp; compact&lt;/div&gt;&lt;div&gt;&lt;br&gt;&lt;/div&gt;&lt;div&gt;Color : blue&lt;/div&gt;&lt;div&gt;&lt;br&gt;&lt;/div&gt;&lt;div&gt;Engine Type : Electric&lt;/div&gt;&lt;div&gt;&lt;br&gt;&lt;/div&gt;&lt;div&gt;Power : 200hp&lt;/div&gt;" style="text;html=1;whiteSpace=wrap;overflow=hidden;rounded=0;" vertex="1" parent="WIyWlLk6GJQsqaUBKTNV-1">
          <mxGeometry x="310" y="130" width="120" height="159" as="geometry" />
        </mxCell>
        <mxCell id="wlakqMtp103lP84yzMkq-8" value="&lt;h1 style=&quot;margin-top: 0px;&quot;&gt;&lt;font style=&quot;font-size: 15px;&quot;&gt;Methods&lt;/font&gt;&lt;/h1&gt;&lt;div&gt;TurnOn&lt;/div&gt;&lt;div&gt;&lt;br&gt;&lt;/div&gt;&lt;div&gt;AddEnergy&lt;/div&gt;&lt;div&gt;&lt;br&gt;&lt;/div&gt;&lt;div&gt;Status&lt;/div&gt;&lt;div&gt;&lt;br&gt;&lt;/div&gt;&lt;div&gt;&lt;br&gt;&lt;/div&gt;" style="text;html=1;whiteSpace=wrap;overflow=hidden;rounded=0;" vertex="1" parent="WIyWlLk6GJQsqaUBKTNV-1">
          <mxGeometry x="440" y="130" width="90" height="149" as="geometry" />
        </mxCell>
        <mxCell id="wlakqMtp103lP84yzMkq-10" value="&lt;b style=&quot;text-wrap-mode: nowrap;&quot;&gt;Class Definition&lt;/b&gt;" style="text;html=1;align=center;verticalAlign=middle;whiteSpace=wrap;rounded=0;" vertex="1" parent="WIyWlLk6GJQsqaUBKTNV-1">
          <mxGeometry x="79" y="19" width="60" as="geometry" />
        </mxCell>
        <mxCell id="wlakqMtp103lP84yzMkq-11" value="&lt;p class=&quot;p1&quot;&gt;&lt;b&gt;Object Instance&lt;/b&gt;&lt;/p&gt;" style="text;html=1;align=center;verticalAlign=middle;whiteSpace=wrap;rounded=0;" vertex="1" parent="WIyWlLk6GJQsqaUBKTNV-1">
          <mxGeometry x="353.5" y="9" width="111" height="20" as="geometry" />
        </mxCell>
      </root>
    </mxGraphModel>
  </diagram>
  <diagram id="lQpE8kg1wHQz1l3AGAtO" name="Page-2">
    <mxGraphModel dx="879" dy="653" grid="1" gridSize="10" guides="1" tooltips="1" connect="1" arrows="1" fold="1" page="1" pageScale="1" pageWidth="550" pageHeight="250" math="0" shadow="0">
      <root>
        <mxCell id="0" />
        <mxCell id="1" parent="0" />
        <mxCell id="PpPCHewfk0hBFDS2KdxY-1" value="Car" style="swimlane;fontStyle=1;align=center;verticalAlign=top;childLayout=stackLayout;horizontal=1;startSize=26;horizontalStack=0;resizeParent=1;resizeParentMax=0;resizeLast=0;collapsible=1;marginBottom=0;whiteSpace=wrap;html=1;fillColor=#E5ECF6;strokeColor=#9673a6;" vertex="1" parent="1">
          <mxGeometry x="170" y="78" width="160" height="110" as="geometry" />
        </mxCell>
        <mxCell id="PpPCHewfk0hBFDS2KdxY-2" value="- field&lt;div&gt;+field&lt;/div&gt;" style="text;strokeColor=#9673a6;fillColor=#E5ECF6;align=left;verticalAlign=top;spacingLeft=4;spacingRight=4;overflow=hidden;rotatable=0;points=[[0,0.5],[1,0.5]];portConstraint=eastwest;whiteSpace=wrap;html=1;" vertex="1" parent="PpPCHewfk0hBFDS2KdxY-1">
          <mxGeometry y="26" width="160" height="44" as="geometry" />
        </mxCell>
        <mxCell id="PpPCHewfk0hBFDS2KdxY-4" value="+setColor()&lt;div&gt;+getColor()&lt;/div&gt;" style="text;strokeColor=#9673a6;fillColor=#E5ECF6;align=left;verticalAlign=top;spacingLeft=4;spacingRight=4;overflow=hidden;rotatable=0;points=[[0,0.5],[1,0.5]];portConstraint=eastwest;whiteSpace=wrap;html=1;" vertex="1" parent="PpPCHewfk0hBFDS2KdxY-1">
          <mxGeometry y="70" width="160" height="40" as="geometry" />
        </mxCell>
        <mxCell id="nHxIJ2OpzuH2NKFkKyYz-1" value="&lt;b style=&quot;text-wrap-mode: nowrap;&quot;&gt;Class without Signature&lt;/b&gt;" style="text;html=1;align=center;verticalAlign=middle;whiteSpace=wrap;rounded=0;" vertex="1" parent="1">
          <mxGeometry x="220" y="218" width="60" as="geometry" />
        </mxCell>
        <mxCell id="nHxIJ2OpzuH2NKFkKyYz-2" value="Car" style="swimlane;fontStyle=1;align=center;verticalAlign=top;childLayout=stackLayout;horizontal=1;startSize=26;horizontalStack=0;resizeParent=1;resizeParentMax=0;resizeLast=0;collapsible=1;marginBottom=0;whiteSpace=wrap;html=1;fillColor=#E5ECF6;strokeColor=#9673a6;" vertex="1" parent="1">
          <mxGeometry x="350" y="78" width="160" height="110" as="geometry" />
        </mxCell>
        <mxCell id="nHxIJ2OpzuH2NKFkKyYz-3" value="- field: type&lt;div&gt;+field: color&lt;/div&gt;" style="text;strokeColor=#9673a6;fillColor=#E5ECF6;align=left;verticalAlign=top;spacingLeft=4;spacingRight=4;overflow=hidden;rotatable=0;points=[[0,0.5],[1,0.5]];portConstraint=eastwest;whiteSpace=wrap;html=1;" vertex="1" parent="nHxIJ2OpzuH2NKFkKyYz-2">
          <mxGeometry y="26" width="160" height="44" as="geometry" />
        </mxCell>
        <mxCell id="nHxIJ2OpzuH2NKFkKyYz-4" value="+setColor(string) void&amp;nbsp;&lt;div&gt;+getColor(void) string&lt;/div&gt;" style="text;strokeColor=#9673a6;fillColor=#E5ECF6;align=left;verticalAlign=top;spacingLeft=4;spacingRight=4;overflow=hidden;rotatable=0;points=[[0,0.5],[1,0.5]];portConstraint=eastwest;whiteSpace=wrap;html=1;" vertex="1" parent="nHxIJ2OpzuH2NKFkKyYz-2">
          <mxGeometry y="70" width="160" height="40" as="geometry" />
        </mxCell>
        <mxCell id="nHxIJ2OpzuH2NKFkKyYz-5" value="&lt;b style=&quot;text-wrap-mode: nowrap;&quot;&gt;Class with Signature&lt;/b&gt;" style="text;html=1;align=center;verticalAlign=middle;whiteSpace=wrap;rounded=0;" vertex="1" parent="1">
          <mxGeometry x="400" y="218" width="60" as="geometry" />
        </mxCell>
        <mxCell id="nHxIJ2OpzuH2NKFkKyYz-6" value="&lt;b style=&quot;text-wrap-mode: nowrap;&quot;&gt;&lt;font style=&quot;font-size: 16px; color: rgb(30, 144, 255);&quot;&gt;Name&lt;/font&gt;&lt;/b&gt;" style="text;html=1;align=center;verticalAlign=middle;whiteSpace=wrap;rounded=0;fontColor=#2B2B2B;" vertex="1" parent="1">
          <mxGeometry x="220" y="18" width="60" height="20" as="geometry" />
        </mxCell>
        <mxCell id="nHxIJ2OpzuH2NKFkKyYz-8" value="" style="html=1;verticalAlign=bottom;endArrow=block;curved=0;rounded=0;strokeColor=light-dark(#1E90FF,#EDEDED);strokeWidth=4;exitX=0.5;exitY=1;exitDx=0;exitDy=0;fontColor=none;noLabel=1;" edge="1" parent="1" source="nHxIJ2OpzuH2NKFkKyYz-6">
          <mxGeometry width="80" relative="1" as="geometry">
            <mxPoint x="249.8" y="48" as="sourcePoint" />
            <mxPoint x="249.8" y="88" as="targetPoint" />
          </mxGeometry>
        </mxCell>
        <mxCell id="nHxIJ2OpzuH2NKFkKyYz-9" value="&lt;b style=&quot;text-wrap-mode: nowrap;&quot;&gt;&lt;font style=&quot;font-size: 16px; color: rgb(30, 144, 255);&quot;&gt;Attributes&lt;/font&gt;&lt;/b&gt;" style="text;html=1;align=center;verticalAlign=middle;whiteSpace=wrap;rounded=0;fontColor=#3366CC;" vertex="1" parent="1">
          <mxGeometry x="50" y="118" width="90" height="20" as="geometry" />
        </mxCell>
        <mxCell id="nHxIJ2OpzuH2NKFkKyYz-10" value="&lt;b style=&quot;text-wrap-mode: nowrap;&quot;&gt;&lt;font style=&quot;font-size: 16px; color: rgb(30, 144, 255);&quot;&gt;Operations&lt;/font&gt;&lt;/b&gt;" style="text;html=1;align=center;verticalAlign=middle;whiteSpace=wrap;rounded=0;fontColor=#3366CC;" vertex="1" parent="1">
          <mxGeometry x="40" y="158" width="100" height="20" as="geometry" />
        </mxCell>
        <mxCell id="nHxIJ2OpzuH2NKFkKyYz-11" value="" style="html=1;verticalAlign=bottom;endArrow=block;curved=0;rounded=0;strokeColor=light-dark(#1E90FF,#EDEDED);strokeWidth=4;exitX=1;exitY=0.5;exitDx=0;exitDy=0;fontColor=none;noLabel=1;" edge="1" parent="1" source="nHxIJ2OpzuH2NKFkKyYz-9">
          <mxGeometry width="80" relative="1" as="geometry">
            <mxPoint x="250.2" y="48" as="sourcePoint" />
            <mxPoint x="170" y="128" as="targetPoint" />
          </mxGeometry>
        </mxCell>
        <mxCell id="nHxIJ2OpzuH2NKFkKyYz-12" value="" style="html=1;verticalAlign=bottom;endArrow=block;curved=0;rounded=0;strokeColor=light-dark(#1E90FF,#EDEDED);strokeWidth=4;exitX=1;exitY=0.5;exitDx=0;exitDy=0;entryX=0;entryY=0.5;entryDx=0;entryDy=0;fontColor=none;noLabel=1;" edge="1" parent="1" target="PpPCHewfk0hBFDS2KdxY-4">
          <mxGeometry width="80" relative="1" as="geometry">
            <mxPoint x="140" y="167.93" as="sourcePoint" />
            <mxPoint x="168" y="167.93" as="targetPoint" />
          </mxGeometry>
        </mxCell>
      </root>
    </mxGraphModel>
  </diagram>
  <diagram id="13l5ZhQ62JDQko6UbWcP" name="Page-3">
    <mxGraphModel dx="741" dy="551" grid="1" gridSize="10" guides="1" tooltips="1" connect="1" arrows="1" fold="1" page="1" pageScale="1" pageWidth="550" pageHeight="250" math="0" shadow="0">
      <root>
        <mxCell id="0" />
        <mxCell id="1" parent="0" />
        <mxCell id="mVGgbMXDjPT5MY1kV-H4-1" value="Car" style="swimlane;fontStyle=1;align=center;verticalAlign=top;childLayout=stackLayout;horizontal=1;startSize=26;horizontalStack=0;resizeParent=1;resizeParentMax=0;resizeLast=0;collapsible=1;marginBottom=0;whiteSpace=wrap;html=1;fillColor=#E5ECF6;strokeColor=#9673a6;" vertex="1" parent="1">
          <mxGeometry x="140" y="40" width="250" height="150" as="geometry" />
        </mxCell>
        <mxCell id="mVGgbMXDjPT5MY1kV-H4-2" value="- saveGas() : bool&lt;div&gt;+&lt;span style=&quot;background-color: transparent; color: light-dark(rgb(0, 0, 0), rgb(255, 255, 255));&quot;&gt;numOfDoors() : int&lt;/span&gt;&lt;/div&gt;&lt;div&gt;&lt;span style=&quot;background-color: transparent; color: light-dark(rgb(0, 0, 0), rgb(255, 255, 255));&quot;&gt;# paintBrand(): Paint&lt;/span&gt;&lt;/div&gt;" style="text;strokeColor=#9673a6;fillColor=#E5ECF6;align=left;verticalAlign=top;spacingLeft=4;spacingRight=4;overflow=hidden;rotatable=0;points=[[0,0.5],[1,0.5]];portConstraint=eastwest;whiteSpace=wrap;html=1;" vertex="1" parent="mVGgbMXDjPT5MY1kV-H4-1">
          <mxGeometry y="26" width="250" height="64" as="geometry" />
        </mxCell>
        <mxCell id="mVGgbMXDjPT5MY1kV-H4-3" value="+op1(doorNum : int) :&amp;nbsp; string&lt;div&gt;- op2(isGasModel :&amp;nbsp;&lt;span style=&quot;background-color: transparent; color: light-dark(rgb(0, 0, 0), rgb(255, 255, 255));&quot;&gt;bool&lt;/span&gt;&lt;span style=&quot;background-color: transparent; color: light-dark(rgb(0, 0, 0), rgb(255, 255, 255));&quot;&gt;) : bool&lt;/span&gt;&lt;/div&gt;&lt;div&gt;#op3(paintBrand : int) : Paint*&lt;/div&gt;" style="text;strokeColor=#9673a6;fillColor=#E5ECF6;align=left;verticalAlign=top;spacingLeft=4;spacingRight=4;overflow=hidden;rotatable=0;points=[[0,0.5],[1,0.5]];portConstraint=eastwest;whiteSpace=wrap;html=1;" vertex="1" parent="mVGgbMXDjPT5MY1kV-H4-1">
          <mxGeometry y="90" width="250" height="60" as="geometry" />
        </mxCell>
        <mxCell id="VV5LA1O4kjHgkje8yk8X-2" value="" style="html=1;verticalAlign=bottom;endArrow=block;curved=0;rounded=0;strokeColor=light-dark(#1E90FF,#EDEDED);strokeWidth=4;fontColor=none;noLabel=1;exitX=0.003;exitY=0.967;exitDx=0;exitDy=0;exitPerimeter=0;" edge="1" parent="mVGgbMXDjPT5MY1kV-H4-1" source="GODQbUa1Kt8kLVmHLMWR-2">
          <mxGeometry width="80" relative="1" as="geometry">
            <mxPoint x="260" y="90" as="sourcePoint" />
            <mxPoint x="172" y="118.88" as="targetPoint" />
          </mxGeometry>
        </mxCell>
        <mxCell id="mVGgbMXDjPT5MY1kV-H4-4" value="" style="shape=partialRectangle;whiteSpace=wrap;html=1;bottom=1;right=1;left=1;top=0;fillColor=none;routingCenterX=-0.5;rotation=90;gradientColor=#ea6b66;strokeColor=#1E90FF;strokeWidth=3;" vertex="1" parent="1">
          <mxGeometry x="100" y="90" width="50" height="15" as="geometry" />
        </mxCell>
        <mxCell id="sEvG056o8CD0HWJe37Gr-1" value="" style="shape=partialRectangle;whiteSpace=wrap;html=1;bottom=1;right=1;left=1;top=0;fillColor=none;routingCenterX=-0.5;rotation=90;gradientColor=#ea6b66;strokeColor=#1E90FF;strokeWidth=3;" vertex="1" parent="1">
          <mxGeometry x="100" y="150" width="50" height="15" as="geometry" />
        </mxCell>
        <mxCell id="7tu8o6xf0vE_sHG9Bf5q-1" value="&lt;b style=&quot;text-wrap-mode: nowrap;&quot;&gt;&lt;font style=&quot;font-size: 16px; color: rgb(30, 144, 255);&quot;&gt;3 Attributes&lt;/font&gt;&lt;/b&gt;" style="text;html=1;align=center;verticalAlign=middle;whiteSpace=wrap;rounded=0;fontColor=#3366CC;" vertex="1" parent="1">
          <mxGeometry x="20" y="87.5" width="90" height="20" as="geometry" />
        </mxCell>
        <mxCell id="7tu8o6xf0vE_sHG9Bf5q-2" value="&lt;b style=&quot;text-wrap-mode: nowrap;&quot;&gt;&lt;font style=&quot;font-size: 16px; color: rgb(30, 144, 255);&quot;&gt;3 Operations&lt;/font&gt;&lt;/b&gt;" style="text;html=1;align=center;verticalAlign=middle;whiteSpace=wrap;rounded=0;fontColor=#3366CC;" vertex="1" parent="1">
          <mxGeometry y="145" width="110" height="20" as="geometry" />
        </mxCell>
        <mxCell id="GODQbUa1Kt8kLVmHLMWR-1" value="" style="html=1;verticalAlign=bottom;endArrow=block;curved=0;rounded=0;strokeColor=light-dark(#1E90FF,#EDEDED);strokeWidth=4;fontColor=none;noLabel=1;exitX=0.003;exitY=0.347;exitDx=0;exitDy=0;exitPerimeter=0;" edge="1" parent="1" source="VV5LA1O4kjHgkje8yk8X-1">
          <mxGeometry width="80" relative="1" as="geometry">
            <mxPoint x="401" y="166" as="sourcePoint" />
            <mxPoint x="310" y="173" as="targetPoint" />
          </mxGeometry>
        </mxCell>
        <mxCell id="GODQbUa1Kt8kLVmHLMWR-2" value="op2 has a parameter of&amp;nbsp;&lt;div&gt;type int&amp;nbsp;&lt;span style=&quot;background-color: transparent; color: light-dark(rgb(0, 0, 0), rgb(255, 255, 255));&quot;&gt;and&amp;nbsp;&lt;/span&gt;&lt;/div&gt;&lt;div&gt;&lt;span style=&quot;background-color: transparent; color: light-dark(rgb(0, 0, 0), rgb(255, 255, 255));&quot;&gt;returns a type bool&lt;/span&gt;&lt;/div&gt;" style="text;html=1;align=center;verticalAlign=middle;resizable=0;points=[];autosize=1;strokeColor=light-dark(#1d90ff, #ededed);fillColor=none;" vertex="1" parent="1">
          <mxGeometry x="400" y="67.5" width="150" height="60" as="geometry" />
        </mxCell>
        <mxCell id="VV5LA1O4kjHgkje8yk8X-1" value="op3 has a parameter of&amp;nbsp;&lt;div&gt;type int&amp;nbsp;&lt;span style=&quot;background-color: transparent; color: light-dark(rgb(0, 0, 0), rgb(255, 255, 255));&quot;&gt;and&amp;nbsp;&lt;/span&gt;&lt;/div&gt;&lt;div&gt;&lt;span style=&quot;background-color: transparent; color: light-dark(rgb(0, 0, 0), rgb(255, 255, 255));&quot;&gt;returns a pointer to&amp;nbsp;&lt;/span&gt;&lt;/div&gt;&lt;div&gt;&lt;span style=&quot;background-color: transparent; color: light-dark(rgb(0, 0, 0), rgb(255, 255, 255));&quot;&gt;class Paint&lt;/span&gt;&lt;/div&gt;&lt;div&gt;&lt;span style=&quot;background-color: transparent; color: light-dark(rgb(0, 0, 0), rgb(255, 255, 255));&quot;&gt;(note the * symbol)&lt;/span&gt;&lt;/div&gt;" style="text;html=1;align=center;verticalAlign=middle;resizable=0;points=[];autosize=1;strokeColor=light-dark(#1d90ff, #ededed);fillColor=none;" vertex="1" parent="1">
          <mxGeometry x="400" y="141.5" width="150" height="90" as="geometry" />
        </mxCell>
      </root>
    </mxGraphModel>
  </diagram>
</mxfile>
